<!-- <?xml version="1.0" standalone="no"?>
<!DOCTYPE svg PUBLIC "-//W3C//DTD SVG 20010904//EN"
 "http://www.w3.org/TR/2001/REC-SVG-20010904/DTD/svg10.dtd"> -->
<svg version="1.0" xmlns="http://www.w3.org/2000/svg"
 width="512.000000pt" height="512.000000pt" viewBox="0 0 512.000000 512.000000"
 preserveAspectRatio="xMidYMid meet">

<g transform="translate(0.000000,512.000000) scale(0.100000,-0.100000)"
fill="#000000" stroke="none">
<path d="M560 1282 c0 -21 5 -75 11 -122 30 -246 152 -425 354 -524 118 -58
181 -71 350 -70 159 0 243 11 394 50 52 13 95 23 96 22 2 -2 26 -42 54 -90
425 -722 1057 -722 1482 0 28 48 52 88 54 90 1 1 44 -9 96 -22 151 -39 235
-50 394 -50 165 -1 229 11 342 65 227 108 351 307 370 593 l6 96 -80 0 -80 0
-11 -107 c-23 -220 -97 -345 -252 -423 -33 -17 -90 -38 -127 -46 -89 -22 -272
-21 -388 0 -93 17 -195 44 -195 50 0 3 20 55 44 118 43 110 126 370 126 396 0
9 -24 12 -85 12 -69 0 -85 -3 -85 -15 0 -40 -138 -426 -161 -449 -9 -10 -97
25 -244 96 -97 48 -315 171 -315 178 1 3 55 46 122 95 l120 90 -122 3 -123 3
-72 -50 -72 -50 -69 49 -68 50 -130 0 -129 0 99 -76 c54 -42 109 -83 122 -91
12 -9 22 -18 22 -22 0 -24 -503 -281 -549 -281 -17 0 -171 407 -171 454 0 13
-15 16 -85 16 -61 0 -85 -3 -85 -12 0 -26 80 -277 125 -393 25 -65 42 -122 38
-125 -9 -9 -118 -34 -213 -51 -97 -17 -283 -14 -364 5 -236 56 -358 213 -381
489 l-7 87 -79 0 -79 0 0 -38z m2125 -327 c121 -73 315 -173 443 -228 34 -14
62 -31 62 -37 0 -6 -23 -47 -51 -92 -326 -525 -737 -569 -1080 -116 -72 96
-134 207 -123 218 5 4 43 22 84 40 121 52 317 154 430 224 58 36 106 65 108
66 1 0 58 -34 127 -75z"/>
<path d="M2480 510 l0 -80 85 0 85 0 0 80 0 80 -85 0 -85 0 0 -80z"/>
<path d="M1057 1162 l-57 -58 55 -54 55 -55 58 58 57 57 -55 55 -55 55 -58
-58z"/>
<path d="M3950 1165 l-55 -55 58 -58 57 -57 56 57 57 56 -53 56 c-29 31 -56
56 -59 56 -4 0 -31 -25 -61 -55z"/>
</g>
</svg>
